<svg width="725" height="632" viewBox="0 0 725 632" fill="none" xmlns="http://www.w3.org/2000/svg">
<g clip-path="url(#clip0_1_4)">
<path d="M653.688 328.635C653.783 406.774 623.58 481.907 569.428 538.24C566.164 541.658 562.811 544.994 559.37 548.247C554.128 553.234 548.709 558.027 543.115 562.627C490.779 605.746 425.444 629.975 357.649 631.408C355.39 631.459 353.123 631.484 350.847 631.484C296.779 631.484 228.774 602.605 167.06 562.627C161.955 559.32 156.894 555.936 151.879 552.475C149.535 550.873 147.202 549.247 144.881 547.599C121.079 530.792 98.4858 512.335 77.2685 492.364C63.3768 479.326 50.35 465.397 38.2711 450.664C-9.14797 392.173 -19.6069 339.469 47.997 328.635C56.0011 327.356 63.7693 325.989 71.3017 324.535C82.2125 322.438 92.6544 320.173 102.627 317.741C116.061 314.476 128.683 310.936 140.491 307.12C144.463 305.841 148.345 304.537 152.135 303.207C208.172 283.525 245.678 257.86 271.207 230.012C275.537 225.298 279.529 220.527 283.183 215.7C288.774 208.352 293.852 200.628 298.382 192.583C304.634 181.404 309.885 169.695 314.074 157.592L314.304 156.927C334.617 98.3327 328.437 43.9835 350.847 25.7933C446.64 -51.9713 565.899 58.7727 621.877 189.369C624.698 195.95 627.352 202.57 629.838 209.23C630.955 212.205 632.031 215.186 633.069 218.172C635.796 225.954 638.271 233.757 640.493 241.579C641.345 244.562 642.158 247.543 642.931 250.52C643.758 253.734 644.55 256.939 645.283 260.144C650.73 283.611 653.688 306.753 653.688 328.635Z" fill="#102D44"/>
<path d="M357.649 631.408C355.39 631.459 353.123 631.484 350.847 631.484C296.779 631.484 228.774 602.605 167.06 562.627C161.955 559.32 156.894 555.936 151.879 552.475L156.278 525.71L289.431 508.031L356.259 559.132L357.649 631.408Z" fill="#2F2E41"/>
<path d="M364.059 153.475H345.085C344.497 153.475 343.933 153.708 343.518 154.124C343.102 154.54 342.869 155.103 342.868 155.691V174.674C342.869 174.964 342.926 175.252 343.038 175.52C343.149 175.788 343.313 176.032 343.519 176.237C343.724 176.442 343.969 176.605 344.237 176.715C344.506 176.826 344.794 176.882 345.085 176.882H364.059C364.645 176.882 365.208 176.649 365.623 176.236C366.039 175.822 366.273 175.26 366.275 174.674V155.691C366.274 155.103 366.04 154.541 365.624 154.126C365.209 153.71 364.646 153.476 364.059 153.475Z" fill="white"/>
<path d="M364.059 185.823H345.085C344.497 185.823 343.933 186.057 343.518 186.473C343.102 186.888 342.869 187.452 342.868 188.039V207.022C342.869 207.313 342.926 207.601 343.038 207.869C343.149 208.137 343.313 208.381 343.519 208.586C343.724 208.791 343.969 208.953 344.237 209.064C344.506 209.174 344.794 209.231 345.085 209.23H364.059C364.645 209.23 365.208 208.998 365.623 208.584C366.039 208.17 366.273 207.609 366.275 207.022V188.039C366.274 187.452 366.04 186.889 365.624 186.474C365.209 186.059 364.646 185.825 364.059 185.823Z" fill="#E6E6E6"/>
<path d="M364.059 218.172H345.085C344.497 218.172 343.933 218.406 343.518 218.821C343.102 219.237 342.869 219.8 342.868 220.388V239.363C342.868 239.654 342.925 239.942 343.036 240.211C343.147 240.48 343.31 240.725 343.516 240.931C343.722 241.137 343.967 241.3 344.236 241.411C344.505 241.522 344.793 241.579 345.085 241.579H364.059C364.647 241.578 365.21 241.345 365.626 240.929C366.041 240.514 366.275 239.95 366.275 239.363V220.388C366.274 219.801 366.04 219.238 365.624 218.823C365.209 218.408 364.646 218.174 364.059 218.172Z" fill="#E6E6E6"/>
<path d="M366.241 252.345C366.147 251.834 365.877 251.373 365.479 251.04C365.08 250.707 364.578 250.523 364.059 250.52H345.085C344.497 250.521 343.933 250.754 343.518 251.17C343.102 251.585 342.869 252.149 342.868 252.737V271.711C342.868 272.002 342.925 272.291 343.036 272.56C343.147 272.829 343.31 273.074 343.516 273.28C343.722 273.485 343.967 273.649 344.236 273.76C344.505 273.871 344.793 273.928 345.085 273.927H364.059C364.647 273.927 365.21 273.694 365.626 273.278C366.041 272.862 366.275 272.299 366.275 271.711V252.737C366.277 252.605 366.266 252.474 366.241 252.345Z" fill="#E6E6E6"/>
<path d="M364.92 283.04C364.647 282.927 364.354 282.869 364.059 282.869H345.084C344.793 282.869 344.505 282.925 344.236 283.037C343.967 283.148 343.722 283.311 343.516 283.517C343.31 283.723 343.147 283.967 343.036 284.237C342.925 284.506 342.868 284.794 342.868 285.085V304.06C342.867 304.351 342.923 304.64 343.034 304.909C343.145 305.179 343.309 305.424 343.515 305.63C343.721 305.836 343.965 305.999 344.235 306.11C344.504 306.221 344.793 306.277 345.084 306.276H364.059C364.647 306.276 365.21 306.042 365.626 305.627C366.041 305.211 366.275 304.648 366.275 304.06V285.085C366.274 284.649 366.145 284.223 365.904 283.859C365.663 283.496 365.321 283.211 364.92 283.04Z" fill="#E6E6E6"/>
<path d="M403.917 153.475H384.943C384.355 153.475 383.792 153.708 383.376 154.124C382.961 154.54 382.727 155.103 382.727 155.691V174.674C382.727 174.964 382.785 175.252 382.896 175.52C383.008 175.788 383.171 176.032 383.377 176.237C383.583 176.442 383.827 176.605 384.096 176.715C384.365 176.826 384.652 176.882 384.943 176.882H403.917C404.504 176.882 405.066 176.649 405.482 176.236C405.897 175.822 406.132 175.26 406.134 174.674V155.691C406.132 155.103 405.898 154.541 405.483 154.126C405.067 153.71 404.505 153.476 403.917 153.475Z" fill="#E6E6E6"/>
<path d="M403.917 185.823H384.943C384.355 185.823 383.792 186.057 383.376 186.473C382.961 186.888 382.727 187.452 382.727 188.039V207.022C382.727 207.313 382.785 207.601 382.896 207.869C383.008 208.137 383.171 208.381 383.377 208.586C383.583 208.791 383.827 208.953 384.096 209.064C384.365 209.174 384.652 209.231 384.943 209.23H403.917C404.504 209.23 405.066 208.998 405.482 208.584C405.897 208.17 406.132 207.609 406.134 207.022V188.039C406.132 187.452 405.898 186.889 405.483 186.474C405.067 186.059 404.505 185.825 403.917 185.823Z" fill="#34D399"/>
<path d="M403.917 218.172H384.943C384.355 218.172 383.792 218.406 383.376 218.821C382.961 219.237 382.727 219.8 382.727 220.388V239.363C382.726 239.654 382.783 239.942 382.894 240.211C383.005 240.48 383.169 240.725 383.375 240.931C383.58 241.137 383.825 241.3 384.094 241.411C384.363 241.522 384.652 241.579 384.943 241.579H403.917C404.505 241.578 405.069 241.345 405.484 240.929C405.9 240.514 406.133 239.95 406.134 239.363V220.388C406.132 219.801 405.898 219.238 405.483 218.823C405.067 218.408 404.505 218.174 403.917 218.172Z" fill="#34D399"/>
<path d="M403.917 250.52H384.943C384.478 250.521 384.026 250.668 383.649 250.94C383.273 251.212 382.992 251.596 382.846 252.038C382.767 252.262 382.727 252.499 382.727 252.737V271.711C382.726 272.002 382.783 272.291 382.894 272.56C383.005 272.829 383.169 273.074 383.375 273.28C383.58 273.485 383.825 273.649 384.094 273.76C384.363 273.871 384.652 273.928 384.943 273.927H403.917C404.505 273.927 405.069 273.694 405.484 273.278C405.9 272.862 406.133 272.299 406.134 271.711V252.737C406.132 252.149 405.898 251.587 405.483 251.171C405.067 250.756 404.505 250.522 403.917 250.52Z" fill="#34D399"/>
<path d="M403.917 282.869H384.943C384.652 282.869 384.363 282.925 384.094 283.037C383.825 283.148 383.58 283.311 383.375 283.517C383.169 283.723 383.005 283.967 382.894 284.237C382.783 284.506 382.726 284.794 382.727 285.085V304.06C382.726 304.351 382.783 304.639 382.894 304.909C383.005 305.178 383.169 305.422 383.375 305.628C383.58 305.834 383.825 305.997 384.094 306.109C384.363 306.22 384.652 306.277 384.943 306.276H403.917C404.505 306.276 405.069 306.042 405.484 305.627C405.9 305.211 406.133 304.648 406.134 304.06V285.085C406.133 284.498 405.9 283.934 405.484 283.519C405.069 283.103 404.505 282.869 403.917 282.869Z" fill="#E6E6E6"/>
<path d="M443.775 153.475H424.801C424.213 153.475 423.65 153.708 423.234 154.124C422.819 154.54 422.585 155.103 422.585 155.691V174.674C422.585 174.964 422.643 175.252 422.754 175.52C422.866 175.788 423.029 176.032 423.235 176.237C423.441 176.442 423.685 176.605 423.954 176.715C424.223 176.826 424.511 176.882 424.801 176.882H443.775C444.362 176.882 444.924 176.649 445.34 176.236C445.755 175.822 445.99 175.26 445.992 174.674V155.691C445.99 155.103 445.756 154.541 445.341 154.126C444.925 153.71 444.363 153.476 443.775 153.475Z" fill="#34D399"/>
<path d="M443.775 185.823H424.801C424.213 185.823 423.65 186.057 423.234 186.473C422.819 186.888 422.585 187.452 422.585 188.039V207.022C422.585 207.313 422.643 207.601 422.754 207.869C422.866 208.137 423.029 208.381 423.235 208.586C423.441 208.791 423.685 208.953 423.954 209.064C424.223 209.174 424.511 209.231 424.801 209.23H443.775C444.362 209.23 444.924 208.998 445.34 208.584C445.755 208.17 445.99 207.609 445.992 207.022V188.039C445.99 187.452 445.756 186.889 445.341 186.474C444.925 186.059 444.363 185.825 443.775 185.823Z" fill="#34D399"/>
<path d="M443.775 218.172H424.801C424.213 218.172 423.65 218.406 423.234 218.821C422.819 219.237 422.585 219.8 422.585 220.388V239.363C422.584 239.654 422.641 239.942 422.752 240.211C422.864 240.48 423.027 240.725 423.233 240.931C423.439 241.137 423.683 241.3 423.952 241.411C424.221 241.522 424.51 241.579 424.801 241.579H443.775C444.363 241.578 444.927 241.345 445.342 240.929C445.758 240.514 445.992 239.95 445.992 239.363V220.388C445.99 219.801 445.756 219.238 445.341 218.823C444.925 218.408 444.363 218.174 443.775 218.172Z" fill="#E6E6E6"/>
<path d="M443.775 250.52H424.801C424.213 250.521 423.65 250.754 423.234 251.17C422.819 251.585 422.585 252.149 422.585 252.737V271.711C422.584 272.002 422.641 272.291 422.752 272.56C422.864 272.829 423.027 273.074 423.233 273.28C423.439 273.485 423.683 273.649 423.952 273.76C424.221 273.871 424.51 273.928 424.801 273.927H443.775C444.363 273.927 444.927 273.694 445.342 273.278C445.758 272.862 445.992 272.299 445.992 271.711V252.737C445.99 252.149 445.756 251.587 445.341 251.171C444.925 250.756 444.363 250.522 443.775 250.52Z" fill="#34D399"/>
<path d="M443.775 282.869H424.801C424.51 282.869 424.221 282.925 423.952 283.037C423.683 283.148 423.439 283.311 423.233 283.517C423.027 283.723 422.864 283.967 422.752 284.237C422.641 284.506 422.584 284.794 422.585 285.085V304.06C422.584 304.351 422.641 304.639 422.752 304.909C422.864 305.178 423.027 305.422 423.233 305.628C423.439 305.834 423.683 305.997 423.952 306.109C424.221 306.22 424.51 306.277 424.801 306.276H443.775C444.363 306.276 444.927 306.042 445.342 305.627C445.758 305.211 445.992 304.648 445.992 304.06V285.085C445.992 284.498 445.758 283.934 445.342 283.519C444.927 283.103 444.363 282.869 443.775 282.869Z" fill="#34D399"/>
<path d="M483.634 153.475H464.659C464.072 153.475 463.508 153.708 463.093 154.124C462.677 154.54 462.443 155.103 462.443 155.691V174.674C462.443 174.964 462.501 175.252 462.613 175.52C462.724 175.788 462.888 176.032 463.093 176.237C463.299 176.442 463.543 176.605 463.812 176.715C464.081 176.826 464.369 176.882 464.659 176.882H483.634C484.22 176.882 484.783 176.649 485.198 176.236C485.614 175.822 485.848 175.26 485.85 174.674V155.691C485.848 155.103 485.614 154.541 485.199 154.126C484.784 153.71 484.221 153.476 483.634 153.475Z" fill="#34D399"/>
<path d="M483.634 185.823H464.659C464.072 185.823 463.508 186.057 463.093 186.473C462.677 186.888 462.443 187.452 462.443 188.039V207.022C462.443 207.313 462.501 207.601 462.613 207.869C462.724 208.137 462.888 208.381 463.093 208.586C463.299 208.791 463.543 208.953 463.812 209.064C464.081 209.174 464.369 209.231 464.659 209.23H483.634C484.22 209.23 484.783 208.998 485.198 208.584C485.614 208.17 485.848 207.609 485.85 207.022V188.039C485.849 187.452 485.614 186.889 485.199 186.474C484.784 186.059 484.221 185.825 483.634 185.823Z" fill="white"/>
<path d="M483.634 218.172H464.659C464.072 218.172 463.508 218.406 463.093 218.821C462.677 219.237 462.443 219.8 462.443 220.388V239.363C462.443 239.654 462.499 239.942 462.611 240.211C462.722 240.481 462.885 240.725 463.091 240.931C463.297 241.137 463.541 241.3 463.811 241.411C464.08 241.522 464.368 241.579 464.659 241.579H483.634C484.222 241.578 484.785 241.345 485.201 240.929C485.616 240.514 485.85 239.95 485.85 239.363V220.388C485.849 219.801 485.614 219.238 485.199 218.823C484.784 218.408 484.221 218.174 483.634 218.172Z" fill="white"/>
<path d="M483.634 250.52H464.659C464.072 250.521 463.508 250.754 463.093 251.17C462.677 251.585 462.443 252.149 462.443 252.737V271.711C462.443 272.002 462.499 272.291 462.611 272.56C462.722 272.829 462.885 273.074 463.091 273.28C463.297 273.485 463.541 273.649 463.811 273.76C464.08 273.871 464.368 273.928 464.659 273.927H483.634C484.222 273.927 484.785 273.694 485.201 273.278C485.616 272.862 485.85 272.299 485.85 271.711V252.737C485.848 252.149 485.614 251.587 485.199 251.171C484.784 250.756 484.221 250.522 483.634 250.52Z" fill="#E6E6E6"/>
<path d="M483.634 282.869H464.659C464.368 282.869 464.08 282.925 463.811 283.037C463.541 283.148 463.297 283.311 463.091 283.517C462.885 283.723 462.722 283.967 462.611 284.237C462.499 284.506 462.443 284.794 462.443 285.085V304.06C462.443 304.351 462.499 304.639 462.611 304.909C462.722 305.178 462.885 305.422 463.091 305.628C463.297 305.834 463.541 305.997 463.811 306.109C464.08 306.22 464.368 306.277 464.659 306.276H483.634C484.222 306.276 484.785 306.042 485.201 305.627C485.616 305.211 485.85 304.648 485.85 304.06V285.085C485.85 284.498 485.616 283.934 485.201 283.519C484.785 283.103 484.222 282.869 483.634 282.869Z" fill="#34D399"/>
<path d="M523.492 153.475H504.509C503.923 153.477 503.361 153.711 502.947 154.126C502.534 154.542 502.301 155.104 502.302 155.691V174.674C502.302 175.259 502.534 175.821 502.948 176.235C503.362 176.649 503.924 176.881 504.509 176.882H523.492C524.079 176.882 524.641 176.649 525.057 176.236C525.472 175.822 525.707 175.26 525.709 174.674V155.691C525.707 155.103 525.473 154.541 525.058 154.126C524.642 153.71 524.08 153.476 523.492 153.475Z" fill="white"/>
<path d="M523.492 185.823H504.509C503.923 185.825 503.361 186.06 502.947 186.475C502.534 186.891 502.301 187.453 502.302 188.039V207.022C502.302 207.608 502.534 208.169 502.948 208.583C503.362 208.997 503.924 209.23 504.509 209.23H523.492C524.079 209.23 524.641 208.998 525.057 208.584C525.472 208.17 525.707 207.609 525.709 207.022V188.039C525.707 187.452 525.473 186.889 525.058 186.474C524.642 186.059 524.08 185.825 523.492 185.823Z" fill="white"/>
<path d="M523.492 218.172H504.509C503.923 218.174 503.361 218.408 502.947 218.824C502.534 219.239 502.301 219.802 502.302 220.388V239.363C502.301 239.653 502.357 239.941 502.468 240.21C502.578 240.478 502.741 240.723 502.946 240.928C503.151 241.134 503.395 241.298 503.663 241.409C503.931 241.521 504.219 241.578 504.509 241.579H523.492C524.08 241.578 524.644 241.345 525.059 240.929C525.475 240.514 525.708 239.95 525.709 239.363V220.388C525.707 219.801 525.473 219.238 525.058 218.823C524.642 218.408 524.08 218.174 523.492 218.172Z" fill="white"/>
<path d="M523.492 250.52H504.509C503.923 250.522 503.361 250.757 502.947 251.172C502.534 251.588 502.301 252.15 502.302 252.737V271.711C502.301 272.002 502.357 272.29 502.468 272.558C502.578 272.827 502.741 273.071 502.946 273.277C503.151 273.483 503.395 273.646 503.663 273.758C503.931 273.87 504.219 273.927 504.509 273.927H523.492C524.08 273.927 524.644 273.694 525.059 273.278C525.475 272.862 525.708 272.299 525.709 271.711V252.737C525.707 252.149 525.473 251.587 525.058 251.171C524.642 250.756 524.08 250.522 523.492 250.52Z" fill="#34D399"/>
<path d="M523.492 282.869H504.509C504.219 282.869 503.931 282.927 503.663 283.039C503.395 283.15 503.151 283.314 502.946 283.519C502.741 283.725 502.578 283.97 502.468 284.238C502.357 284.507 502.301 284.795 502.302 285.085V304.06C502.301 304.35 502.357 304.638 502.468 304.907C502.578 305.176 502.741 305.42 502.946 305.626C503.151 305.832 503.395 305.995 503.663 306.107C503.931 306.218 504.219 306.276 504.509 306.276H523.492C524.08 306.276 524.644 306.042 525.059 305.627C525.475 305.211 525.708 304.648 525.709 304.06V285.085C525.708 284.498 525.475 283.934 525.059 283.519C524.644 283.103 524.08 282.869 523.492 282.869Z" fill="#E6E6E6"/>
<path d="M563.351 153.475H544.368C543.781 153.477 543.22 153.711 542.806 154.126C542.392 154.542 542.16 155.104 542.16 155.691V174.674C542.16 175.259 542.393 175.821 542.807 176.235C543.221 176.649 543.782 176.881 544.368 176.882H563.351C563.937 176.882 564.5 176.649 564.915 176.236C565.33 175.822 565.565 175.26 565.567 174.674V155.691C565.565 155.103 565.331 154.541 564.916 154.126C564.501 153.71 563.938 153.476 563.351 153.475Z" fill="white"/>
<path d="M563.351 185.823H544.368C543.781 185.825 543.22 186.06 542.806 186.475C542.392 186.891 542.16 187.453 542.16 188.039V207.022C542.16 207.608 542.393 208.169 542.807 208.583C543.221 208.997 543.782 209.23 544.368 209.23H563.351C563.937 209.23 564.5 208.998 564.915 208.584C565.33 208.17 565.565 207.609 565.567 207.022V188.039C565.565 187.452 565.331 186.889 564.916 186.474C564.501 186.059 563.938 185.825 563.351 185.823Z" fill="white"/>
<path d="M563.351 218.172H544.368C543.781 218.174 543.22 218.408 542.806 218.824C542.392 219.239 542.16 219.802 542.16 220.388V239.363C542.159 239.653 542.216 239.941 542.326 240.21C542.437 240.478 542.599 240.723 542.804 240.928C543.009 241.134 543.253 241.298 543.521 241.409C543.789 241.521 544.077 241.578 544.368 241.579H563.351C563.938 241.578 564.502 241.345 564.917 240.929C565.333 240.514 565.567 239.95 565.567 239.363V220.388C565.565 219.801 565.331 219.238 564.916 218.823C564.501 218.408 563.938 218.174 563.351 218.172Z" fill="#34D399"/>
<path d="M563.351 250.52H544.368C543.781 250.522 543.22 250.757 542.806 251.172C542.392 251.588 542.16 252.15 542.16 252.737V271.711C542.159 272.002 542.216 272.29 542.326 272.558C542.437 272.827 542.599 273.071 542.804 273.277C543.009 273.483 543.253 273.646 543.521 273.758C543.789 273.87 544.077 273.927 544.368 273.927H563.351C563.938 273.927 564.502 273.694 564.917 273.278C565.333 272.862 565.567 272.299 565.567 271.711V252.737C565.565 252.149 565.331 251.587 564.916 251.171C564.501 250.756 563.938 250.522 563.351 250.52Z" fill="#E6E6E6"/>
<path d="M563.351 282.869H544.368C544.077 282.869 543.789 282.927 543.521 283.039C543.253 283.15 543.009 283.314 542.804 283.519C542.599 283.725 542.437 283.97 542.326 284.238C542.216 284.507 542.159 284.795 542.16 285.085V304.06C542.159 304.35 542.216 304.638 542.326 304.907C542.437 305.176 542.599 305.42 542.804 305.626C543.009 305.832 543.253 305.995 543.521 306.107C543.789 306.218 544.077 306.276 544.368 306.276H563.351C563.938 306.276 564.502 306.042 564.917 305.627C565.333 305.211 565.567 304.648 565.567 304.06V285.085C565.567 284.498 565.333 283.934 564.917 283.519C564.502 283.103 563.938 282.869 563.351 282.869Z" fill="white"/>
<path d="M603.209 153.475H584.226C583.639 153.477 583.078 153.711 582.664 154.126C582.25 154.542 582.018 155.104 582.018 155.691V174.674C582.018 175.259 582.251 175.821 582.665 176.235C583.079 176.649 583.64 176.881 584.226 176.882H603.209C603.795 176.882 604.358 176.649 604.773 176.236C605.189 175.822 605.423 175.26 605.425 174.674V155.691C605.423 155.103 605.189 154.541 604.774 154.126C604.359 153.71 603.796 153.476 603.209 153.475Z" fill="#34D399"/>
<path d="M603.209 185.823H584.226C583.639 185.825 583.078 186.06 582.664 186.475C582.25 186.891 582.018 187.453 582.018 188.039V207.022C582.018 207.608 582.251 208.169 582.665 208.583C583.079 208.997 583.64 209.23 584.226 209.23H603.209C603.795 209.23 604.358 208.998 604.773 208.584C605.189 208.17 605.423 207.609 605.425 207.022V188.039C605.423 187.452 605.189 186.889 604.774 186.474C604.359 186.059 603.796 185.825 603.209 185.823Z" fill="#34D399"/>
<path d="M603.209 218.172H584.226C583.639 218.174 583.078 218.408 582.664 218.824C582.25 219.239 582.018 219.802 582.018 220.388V239.363C582.017 239.653 582.074 239.941 582.184 240.21C582.295 240.478 582.457 240.723 582.662 240.928C582.867 241.134 583.111 241.298 583.379 241.409C583.648 241.521 583.935 241.578 584.226 241.579H603.209C603.796 241.578 604.36 241.345 604.775 240.929C605.191 240.514 605.425 239.95 605.425 239.363V220.388C605.423 219.801 605.189 219.238 604.774 218.823C604.359 218.408 603.796 218.174 603.209 218.172Z" fill="#E6E6E6"/>
<path d="M603.209 250.52H584.226C583.639 250.522 583.078 250.757 582.664 251.172C582.25 251.588 582.018 252.15 582.018 252.737V271.711C582.017 272.002 582.074 272.29 582.184 272.558C582.295 272.827 582.457 273.071 582.662 273.277C582.867 273.483 583.111 273.646 583.379 273.758C583.648 273.87 583.935 273.927 584.226 273.927H603.209C603.796 273.927 604.36 273.694 604.776 273.278C605.191 272.862 605.425 272.299 605.425 271.711V252.737C605.423 252.149 605.189 251.587 604.774 251.171C604.359 250.756 603.796 250.522 603.209 250.52Z" fill="white"/>
<path d="M603.209 282.869H584.226C583.935 282.869 583.648 282.927 583.379 283.039C583.111 283.15 582.867 283.314 582.662 283.519C582.457 283.725 582.295 283.97 582.184 284.238C582.074 284.507 582.017 284.795 582.018 285.085V304.06C582.017 304.35 582.074 304.638 582.184 304.907C582.295 305.176 582.457 305.42 582.662 305.626C582.867 305.832 583.111 305.995 583.379 306.107C583.648 306.218 583.935 306.276 584.226 306.276H603.209C603.796 306.276 604.36 306.042 604.776 305.627C605.191 305.211 605.425 304.648 605.425 304.06V285.085C605.425 284.498 605.191 283.934 604.776 283.519C604.36 283.103 603.796 282.869 603.209 282.869Z" fill="#34D399"/>
<path d="M643.067 153.475H624.084C623.498 153.477 622.936 153.711 622.522 154.126C622.109 154.542 621.876 155.104 621.876 155.691V174.674C621.877 175.259 622.109 175.821 622.523 176.235C622.937 176.649 623.499 176.881 624.084 176.882H643.067C643.654 176.882 644.216 176.649 644.632 176.236C645.047 175.822 645.281 175.26 645.284 174.674V155.691C645.282 155.103 645.048 154.541 644.632 154.126C644.217 153.71 643.654 153.476 643.067 153.475Z" fill="#34D399"/>
<path d="M643.067 185.823H624.084C623.498 185.825 622.936 186.06 622.522 186.475C622.108 186.891 621.876 187.453 621.876 188.039V207.022C621.877 207.608 622.109 208.169 622.523 208.583C622.937 208.997 623.499 209.23 624.084 209.23H643.067C643.654 209.23 644.216 208.998 644.632 208.584C645.047 208.17 645.281 207.609 645.284 207.022V188.039C645.282 187.452 645.048 186.889 644.632 186.474C644.217 186.059 643.654 185.825 643.067 185.823Z" fill="#34D399"/>
<path d="M643.067 218.172H624.084C623.498 218.174 622.936 218.408 622.522 218.824C622.109 219.239 621.876 219.802 621.876 220.388V239.363C621.876 239.653 621.932 239.941 622.043 240.21C622.153 240.478 622.316 240.723 622.521 240.928C622.726 241.134 622.969 241.298 623.238 241.409C623.506 241.521 623.794 241.578 624.084 241.579H643.067C643.655 241.578 644.218 241.345 644.634 240.929C645.05 240.514 645.283 239.95 645.284 239.363V220.388C645.282 219.801 645.048 219.238 644.632 218.823C644.217 218.408 643.654 218.174 643.067 218.172Z" fill="#E6E6E6"/>
<path d="M643.067 250.52H624.084C623.498 250.522 622.936 250.757 622.522 251.172C622.109 251.588 621.876 252.15 621.876 252.737V271.711C621.876 272.002 621.932 272.29 622.043 272.558C622.153 272.827 622.316 273.071 622.521 273.277C622.726 273.483 622.969 273.646 623.238 273.758C623.506 273.87 623.794 273.927 624.084 273.927H643.067C643.655 273.927 644.218 273.694 644.634 273.278C645.05 272.862 645.283 272.299 645.284 271.711V252.737C645.282 252.149 645.048 251.587 644.632 251.171C644.217 250.756 643.654 250.522 643.067 250.52Z" fill="#34D399"/>
<path d="M643.067 282.869H624.084C623.794 282.869 623.506 282.927 623.238 283.039C622.969 283.15 622.726 283.314 622.521 283.519C622.316 283.725 622.153 283.97 622.043 284.238C621.932 284.507 621.876 284.795 621.876 285.085V304.06C621.876 304.35 621.932 304.638 622.043 304.907C622.153 305.176 622.316 305.42 622.521 305.626C622.726 305.832 622.969 305.995 623.238 306.107C623.506 306.218 623.794 306.276 624.084 306.276H643.067C643.655 306.276 644.218 306.042 644.634 305.627C645.05 305.211 645.283 304.648 645.284 304.06V285.085C645.283 284.498 645.05 283.934 644.634 283.519C644.218 283.103 643.655 282.869 643.067 282.869Z" fill="#34D399"/>
<path d="M682.926 153.475H663.943C663.356 153.477 662.795 153.711 662.381 154.126C661.967 154.542 661.735 155.104 661.735 155.691V174.674C661.735 175.259 661.968 175.821 662.382 176.235C662.796 176.649 663.357 176.881 663.943 176.882H682.926C683.512 176.882 684.074 176.649 684.49 176.236C684.905 175.822 685.14 175.26 685.142 174.674V155.691C685.14 155.103 684.906 154.541 684.491 154.126C684.075 153.71 683.513 153.476 682.926 153.475Z" fill="#E6E6E6"/>
<path d="M682.926 185.823H663.943C663.356 185.825 662.795 186.06 662.381 186.475C661.967 186.891 661.735 187.453 661.735 188.039V207.022C661.735 207.608 661.968 208.169 662.382 208.583C662.796 208.997 663.357 209.23 663.943 209.23H682.926C683.512 209.23 684.074 208.998 684.49 208.584C684.905 208.17 685.14 207.609 685.142 207.022V188.039C685.14 187.452 684.906 186.889 684.491 186.474C684.075 186.059 683.513 185.825 682.926 185.823Z" fill="#34D399"/>
<path d="M682.926 218.172H663.943C663.356 218.174 662.795 218.408 662.381 218.824C661.967 219.239 661.735 219.802 661.735 220.388V239.363C661.734 239.653 661.791 239.941 661.901 240.21C662.012 240.478 662.174 240.723 662.379 240.928C662.584 241.134 662.828 241.298 663.096 241.409C663.364 241.521 663.652 241.578 663.943 241.579H682.926C683.513 241.578 684.077 241.345 684.492 240.929C684.908 240.514 685.141 239.95 685.142 239.363V220.388C685.14 219.801 684.906 219.238 684.491 218.823C684.075 218.408 683.513 218.174 682.926 218.172Z" fill="#34D399"/>
<path d="M682.926 250.52H663.943C663.356 250.522 662.795 250.757 662.381 251.172C661.967 251.588 661.735 252.15 661.735 252.737V271.711C661.734 272.002 661.791 272.29 661.901 272.558C662.012 272.827 662.174 273.071 662.379 273.277C662.584 273.483 662.828 273.646 663.096 273.758C663.364 273.87 663.652 273.927 663.943 273.927H682.926C683.513 273.927 684.077 273.694 684.492 273.278C684.908 272.862 685.141 272.299 685.142 271.711V252.737C685.14 252.149 684.906 251.587 684.491 251.171C684.075 250.756 683.513 250.522 682.926 250.52Z" fill="#34D399"/>
<path d="M682.926 282.869H663.943C663.652 282.869 663.364 282.927 663.096 283.039C662.828 283.15 662.584 283.314 662.379 283.519C662.174 283.725 662.012 283.97 661.901 284.238C661.791 284.507 661.734 284.795 661.735 285.085V304.06C661.734 304.35 661.791 304.638 661.901 304.907C662.012 305.176 662.174 305.42 662.379 305.626C662.584 305.832 662.828 305.995 663.096 306.107C663.364 306.218 663.652 306.276 663.943 306.276H682.926C683.513 306.276 684.077 306.042 684.492 305.627C684.908 305.211 685.141 304.648 685.142 304.06V285.085C685.141 284.498 684.908 283.934 684.492 283.519C684.077 283.103 683.513 282.869 682.926 282.869Z" fill="#E6E6E6"/>
<path d="M722.784 153.475H703.801C703.214 153.477 702.653 153.711 702.239 154.126C701.825 154.542 701.593 155.104 701.593 155.691V174.674C701.593 175.259 701.826 175.821 702.24 176.235C702.654 176.649 703.215 176.881 703.801 176.882H722.784C723.37 176.882 723.933 176.649 724.348 176.236C724.763 175.822 724.998 175.26 725 174.674V155.691C724.998 155.103 724.764 154.541 724.349 154.126C723.934 153.71 723.371 153.476 722.784 153.475Z" fill="#E6E6E6"/>
<path d="M722.784 185.823H703.801C703.214 185.825 702.653 186.06 702.239 186.475C701.825 186.891 701.593 187.453 701.593 188.039V207.022C701.593 207.608 701.826 208.169 702.24 208.583C702.654 208.997 703.215 209.23 703.801 209.23H722.784C723.37 209.23 723.933 208.998 724.348 208.584C724.763 208.17 724.998 207.609 725 207.022V188.039C724.998 187.452 724.764 186.889 724.349 186.474C723.934 186.059 723.371 185.825 722.784 185.823Z" fill="#E6E6E6"/>
<path d="M722.784 218.172H703.801C703.214 218.174 702.653 218.408 702.239 218.824C701.825 219.239 701.593 219.802 701.593 220.388V239.363C701.592 239.653 701.648 239.941 701.759 240.21C701.87 240.478 702.032 240.723 702.237 240.928C702.442 241.134 702.686 241.298 702.954 241.409C703.222 241.521 703.51 241.578 703.801 241.579H722.784C723.371 241.578 723.935 241.345 724.35 240.929C724.766 240.514 725 239.95 725 239.363V220.388C724.998 219.801 724.764 219.238 724.349 218.823C723.934 218.408 723.371 218.174 722.784 218.172Z" fill="#34D399"/>
<path d="M722.784 250.52H703.801C703.214 250.522 702.653 250.757 702.239 251.172C701.825 251.588 701.593 252.15 701.593 252.737V271.711C701.592 272.002 701.648 272.29 701.759 272.558C701.87 272.827 702.032 273.071 702.237 273.277C702.442 273.483 702.686 273.646 702.954 273.758C703.222 273.87 703.51 273.927 703.801 273.927H722.784C723.371 273.927 723.935 273.694 724.35 273.278C724.766 272.862 725 272.299 725 271.711V252.737C724.998 252.149 724.764 251.587 724.349 251.171C723.934 250.756 723.371 250.522 722.784 250.52Z" fill="#E6E6E6"/>
<path d="M722.784 282.869H703.801C703.51 282.869 703.222 282.927 702.954 283.039C702.686 283.15 702.442 283.314 702.237 283.519C702.032 283.725 701.87 283.97 701.759 284.238C701.648 284.507 701.592 284.795 701.593 285.085V304.06C701.592 304.35 701.648 304.638 701.759 304.907C701.87 305.176 702.032 305.42 702.237 305.626C702.442 305.832 702.686 305.995 702.954 306.107C703.222 306.218 703.51 306.276 703.801 306.276H722.784C723.371 306.276 723.935 306.042 724.35 305.627C724.766 305.211 725 304.648 725 304.06V285.085C725 284.498 724.766 283.934 724.35 283.519C723.935 283.103 723.371 282.869 722.784 282.869Z" fill="#E6E6E6"/>
<path d="M286.488 562.629H285.959L286.411 562.569L286.488 562.629Z" fill="#2F2E41"/>
<path d="M241.071 208.885C273.235 208.885 299.309 182.811 299.309 150.647C299.309 118.484 273.235 92.4096 241.071 92.4096C208.908 92.4096 182.834 118.484 182.834 150.647C182.834 182.811 208.908 208.885 241.071 208.885Z" fill="#FFB6B6"/>
<path d="M292.072 107.948C292.072 107.948 307.304 78.8296 273.793 76.1824C273.793 76.1824 245.225 50.2675 216.106 71.4448C216.106 71.4448 200.223 71.4448 191.538 89.4183C191.538 89.4183 179.046 84.6806 176.301 97.3597C176.301 97.3597 167.16 123.831 176.301 147.656C185.442 171.481 188.478 174.128 188.478 174.128C188.478 174.128 173.458 124.178 210.018 121.531C246.578 118.884 287.49 96.0362 290.537 125.155C293.583 154.274 298.168 161.448 298.168 161.448C298.168 161.448 327.107 119.861 292.072 107.948Z" fill="#2F2E41"/>
<path d="M391.719 294.172L391.532 295.161L389.426 306.276L374.876 383.163L374.015 387.689L372.208 397.261L369.736 410.32L364.255 439.259L362.687 447.553L362.098 450.664L361.894 451.755L360.266 460.339L359.771 462.93L355.799 492.364L352.33 518.012L363.94 529.622L357.018 536.544L352.475 562.568L352.483 562.627H167.061C159.559 557.768 152.166 552.759 144.881 547.599L146.407 536.177C146.407 536.177 151.658 515.779 149.45 513.341C147.251 510.904 142.426 506.548 142.426 506.548L148.504 492.364L149.348 490.395L147.933 461.047L147.899 460.339L147.43 450.664L147.37 449.42L147.276 447.553L145.478 410.32L145.444 409.706L144.898 398.42L144.387 387.689L144.165 383.163L141.974 337.874L140.491 307.12L139.196 280.346L144.404 278.582L200.108 259.65L223.183 229.654L271.207 230.012L294.716 230.191L333.944 266.571L342.868 270.833L342.937 270.867L349.338 273.927L365.568 281.676L382.727 289.876L391.532 294.078L391.719 294.172Z" fill="#CACACA"/>
<path d="M229.389 475.257C225.87 476.621 222.094 477.196 218.329 476.942C214.563 476.689 210.899 475.613 207.594 473.79C204.29 471.967 201.425 469.442 199.202 466.392C196.978 463.342 195.451 459.842 194.727 456.138L103.896 443.251L135.471 407.534L216.885 425.247C223.188 424.443 229.567 425.979 234.814 429.564C240.06 433.149 243.809 438.534 245.35 444.698C246.891 450.863 246.118 457.378 243.176 463.011C240.234 468.643 235.329 473 229.389 475.257V475.257Z" fill="#FFB6B6"/>
<path d="M188.89 410.32C187.208 408.187 184.826 406.717 182.165 406.169L144.898 398.421L141.071 397.628C138.846 397.164 136.745 396.235 134.905 394.903C133.064 393.571 131.526 391.865 130.39 389.897C129.212 387.831 128.499 385.533 128.302 383.163C128.124 381.008 128.382 378.84 129.06 376.787L141.974 337.875L150.353 312.626C151.369 309.581 151.968 306.413 152.135 303.207C152.602 294.336 149.857 285.594 144.403 278.582C139.609 272.418 132.959 267.96 125.436 265.866C117.913 263.773 109.917 264.154 102.627 266.955C102.414 267.032 102.193 267.117 101.979 267.202C96.7519 269.289 92.0815 272.564 88.3372 276.767C84.5929 280.97 81.8774 285.986 80.4052 291.419L71.3016 324.535L52.5231 392.803C50.6433 399.643 50.2636 406.809 51.4098 413.809C52.5561 420.809 55.2013 427.479 59.1645 433.363C63.1276 439.246 68.3151 444.203 74.3718 447.896C80.4286 451.588 87.2116 453.928 94.2567 454.756L147.932 461.047L172.771 463.962C175.644 464.307 178.54 463.557 180.885 461.862C183.229 460.167 184.849 457.651 185.421 454.816C185.461 454.661 185.493 454.505 185.515 454.347L186.112 450.664L191.166 419.654L191.217 419.339C191.481 417.756 191.41 416.136 191.009 414.583C190.608 413.03 189.886 411.578 188.89 410.32Z" fill="#CACACA"/>
<path d="M287.244 476.251C290.921 477.105 294.739 477.142 298.432 476.36C302.124 475.578 305.6 473.996 308.614 471.725C311.629 469.454 314.109 466.55 315.88 463.218C317.651 459.885 318.669 456.204 318.864 452.435L406.97 426.868L370.673 395.961L292.571 424.978C286.217 425.071 280.119 427.491 275.43 431.78C270.742 436.069 267.79 441.928 267.133 448.249C266.477 454.569 268.161 460.91 271.868 466.071C275.574 471.233 281.046 474.855 287.244 476.251V476.251Z" fill="#FFB6B6"/>
<path d="M450.714 369.678L408.81 273.237C405.383 265.319 399.261 258.872 391.532 255.038C389.143 253.862 386.634 252.947 384.048 252.31C383.647 252.208 383.247 252.114 382.846 252.038C377.363 250.841 371.676 250.946 366.241 252.345C361.273 253.621 356.63 255.93 352.614 259.122C348.599 262.313 345.301 266.316 342.936 270.867C342.911 270.905 342.888 270.945 342.868 270.987C340.227 276.096 338.822 281.755 338.767 287.507C338.713 293.259 340.009 298.943 342.553 304.102L343.073 305.142L372.685 364.614C373.696 366.648 374.266 368.873 374.357 371.142C374.448 373.411 374.058 375.674 373.213 377.782C372.368 379.89 371.087 381.796 369.453 383.374C367.82 384.952 365.871 386.167 363.735 386.939L361.655 387.689L324.252 401.199C321.445 402.201 319.137 404.252 317.812 406.922C316.488 409.591 316.251 412.671 317.151 415.511L317.245 415.81L327.73 449.36C327.781 449.514 327.832 449.667 327.892 449.82C327.984 450.11 328.098 450.392 328.232 450.664C329.347 453.163 331.316 455.183 333.787 456.359C336.257 457.536 339.066 457.793 341.709 457.083L361.894 451.755L366.011 450.664L418.135 436.898C424.994 435.086 431.38 431.813 436.856 427.303C442.332 422.793 446.769 417.154 449.863 410.77C452.956 404.386 454.634 397.409 454.781 390.317C454.928 383.224 453.541 376.184 450.714 369.678L450.714 369.678Z" fill="#CACACA"/>
<path d="M38.2712 450.664C50.3501 465.397 63.3769 479.326 77.2686 492.364H462.529C466.24 492.37 469.798 493.847 472.422 496.473C475.046 499.098 476.522 502.657 476.525 506.369L477.079 603.994C500.78 593.105 522.975 579.201 543.115 562.627C548.706 558.033 554.125 553.24 559.37 548.247C562.805 544.991 566.158 541.655 569.428 538.24C593.947 512.698 613.801 483.058 628.091 450.664H38.2712Z" fill="#3F3D56"/>
<path d="M569.428 538.24C566.164 541.658 562.811 544.994 559.37 548.247H477.36V538.24H569.428Z" fill="white"/>
<path d="M390.952 218.172C390.547 217.424 389.948 216.8 389.217 216.364C388.486 215.929 387.652 215.7 386.801 215.7H107.35C106.097 215.703 104.896 216.203 104.011 217.09C103.126 217.976 102.628 219.178 102.627 220.431V387.689H391.532V220.431C391.536 219.64 391.337 218.862 390.952 218.172Z" fill="#3F3D56"/>
<path d="M102.375 383.161V403.801C102.375 404.656 102.543 405.503 102.87 406.294C103.198 407.084 103.678 407.803 104.283 408.408C104.888 409.013 105.606 409.493 106.397 409.82C107.187 410.148 108.034 410.316 108.89 410.316H215.523V451.05H214.106C213.995 451.05 213.885 451.071 213.782 451.114C213.68 451.156 213.586 451.219 213.508 451.297C213.429 451.376 213.367 451.469 213.324 451.572C213.282 451.675 213.26 451.785 213.26 451.896V454.729C213.26 454.84 213.282 454.95 213.324 455.053C213.367 455.156 213.429 455.249 213.508 455.328C213.586 455.406 213.68 455.469 213.782 455.511C213.885 455.554 213.995 455.576 214.106 455.576H280.302C280.413 455.576 280.524 455.554 280.626 455.511C280.729 455.469 280.822 455.406 280.901 455.328C280.979 455.249 281.042 455.156 281.084 455.053C281.127 454.95 281.149 454.84 281.149 454.729V451.896C281.149 451.785 281.127 451.675 281.084 451.572C281.042 451.469 280.979 451.376 280.901 451.297C280.822 451.219 280.729 451.156 280.626 451.114C280.524 451.071 280.413 451.05 280.302 451.05H278.886V410.316H385.518C386.374 410.316 387.221 410.148 388.012 409.82C388.802 409.493 389.521 409.013 390.126 408.408C390.731 407.803 391.211 407.084 391.538 406.294C391.865 405.503 392.034 404.656 392.034 403.801V383.161H102.375Z" fill="#3F3D56"/>
<path d="M243.704 323.921C258.442 323.921 270.39 311.974 270.39 297.236C270.39 282.498 258.442 270.55 243.704 270.55C228.966 270.55 217.019 282.498 217.019 297.236C217.019 311.974 228.966 323.921 243.704 323.921Z" fill="#34D399"/>
<path d="M311.696 147.465H307.434C307.434 115.244 275.546 94.1304 243.376 94.1133C238.697 94.0996 234.028 94.5537 229.439 95.4686C224.274 96.5 218.912 97.736 213.644 99.3471C192.871 105.714 173.607 118.023 173.607 147.465C173.603 153.183 174.33 158.878 175.772 164.411L171.646 165.485C170.116 159.601 169.343 153.545 169.345 147.465C169.345 121.74 179.906 104.069 198.148 93.5337C207.737 87.9931 219.441 84.4215 232.849 82.6826C238.429 81.9403 244.069 81.7689 249.684 82.1712C286.678 84.8306 311.696 113.199 311.696 147.465Z" fill="#34D399"/>
<path d="M318.797 149.826L317.117 137.415C316.703 134.281 315.193 131.394 312.855 129.266C311.354 127.879 309.558 126.851 307.601 126.26C305.644 125.67 303.579 125.532 301.561 125.857L298.893 126.223C298.163 126.319 297.459 126.559 296.823 126.93C296.186 127.3 295.63 127.793 295.185 128.38C294.737 128.965 294.409 129.633 294.22 130.345C294.031 131.058 293.986 131.801 294.085 132.531L297.964 161.121C298.124 162.286 298.646 163.371 299.457 164.223C300.267 165.075 301.326 165.651 302.482 165.868C302.824 165.937 303.172 165.971 303.522 165.971C303.772 165.971 304.023 165.954 304.272 165.92L307.255 165.519C309.074 165.278 310.824 164.667 312.399 163.724C313.973 162.782 315.338 161.527 316.41 160.038C316.64 159.714 316.862 159.382 317.066 159.041C318.664 156.252 319.274 153.005 318.797 149.826Z" fill="#34D399"/>
<path d="M297.171 126.743C296.389 127.123 295.708 127.684 295.185 128.38C294.737 128.965 294.409 129.633 294.22 130.345C294.031 131.058 293.986 131.801 294.085 132.531L297.964 161.121C298.124 162.286 298.646 163.371 299.457 164.223C300.267 165.075 301.326 165.651 302.482 165.868L297.171 126.743Z" fill="white"/>
<path d="M318.796 149.826L317.117 137.415C316.703 134.281 315.193 131.394 312.855 129.266L316.717 157.711C316.774 158.168 316.892 158.615 317.066 159.041C318.664 156.252 319.273 153.005 318.796 149.826Z" fill="#3F3D56"/>
<path d="M305.525 158.769C306.691 158.61 307.277 155.835 306.834 152.569C306.392 149.304 305.087 146.785 303.921 146.943C302.755 147.101 302.168 149.877 302.611 153.142C303.054 156.408 304.359 158.927 305.525 158.769Z" fill="#3F3D56"/>
<path d="M302.968 143.425C304.134 143.267 304.72 140.492 304.277 137.226C303.834 133.961 302.53 131.442 301.363 131.6C300.197 131.758 299.611 134.534 300.054 137.799C300.497 141.065 301.801 143.584 302.968 143.425Z" fill="#3F3D56"/>
<path d="M319.163 149.392C320.33 149.234 320.916 146.458 320.473 143.193C320.03 139.928 318.725 137.409 317.559 137.567C316.393 137.725 315.807 140.5 316.25 143.766C316.693 147.031 317.997 149.55 319.163 149.392Z" fill="#3F3D56"/>
<path d="M243.376 94.1133C238.697 94.0996 234.028 94.5536 229.439 95.4686C224.274 96.5 218.912 97.736 213.644 99.347C205.418 98.9464 199.366 96.8154 198.147 93.5336C207.737 87.993 219.44 84.4215 232.849 82.6826C238.428 81.9403 244.069 81.7689 249.684 82.1711C250.278 82.5196 250.792 82.9898 251.192 83.551C251.591 84.1122 251.867 84.7517 252.002 85.4273C252.403 88.3937 249.019 91.5475 243.376 94.1133Z" fill="#3F3D56"/>
<path d="M188.959 177.043L182.395 149.758C182.161 148.774 181.641 147.88 180.901 147.19C180.161 146.5 179.234 146.044 178.235 145.88C177.953 145.836 177.668 145.813 177.383 145.811C176.981 145.813 176.58 145.862 176.19 145.956L173.649 146.57C170.379 147.361 167.556 149.417 165.799 152.287C164.043 155.157 163.497 158.607 164.282 161.879L167.222 174.12C167.894 177.001 169.493 179.583 171.774 181.467C172.144 181.766 172.531 182.042 172.933 182.294C174.362 183.19 175.956 183.79 177.621 184.059C179.285 184.329 180.987 184.262 182.625 183.863L185.157 183.249C185.826 183.093 186.456 182.8 187.007 182.388C187.825 181.791 188.448 180.964 188.796 180.013C189.143 179.061 189.2 178.027 188.959 177.043Z" fill="#34D399"/>
<path d="M175.199 171.967C176.343 171.691 176.646 168.871 175.875 165.667C175.104 162.463 173.551 160.089 172.407 160.364C171.263 160.64 170.96 163.46 171.731 166.664C172.502 169.868 174.055 172.242 175.199 171.967Z" fill="#3F3D56"/>
<path d="M166.675 174.524C167.819 174.249 168.122 171.428 167.351 168.224C166.58 165.02 165.027 162.646 163.883 162.921C162.739 163.197 162.436 166.017 163.207 169.221C163.978 172.425 165.531 174.799 166.675 174.524Z" fill="#3F3D56"/>
<path d="M189.376 176.941L182.813 149.656C182.557 148.591 181.993 147.625 181.191 146.879C180.389 146.133 179.385 145.64 178.304 145.462L187.262 182.729C188.147 182.081 188.82 181.185 189.196 180.155C189.573 179.125 189.635 178.007 189.376 176.941Z" fill="white"/>
<path d="M165.765 156.475C165.584 155.716 165.244 155.004 164.768 154.387C163.845 156.776 163.675 159.391 164.282 161.879L167.223 174.12C167.894 177.001 169.493 179.583 171.774 181.467L165.765 156.475Z" fill="#3F3D56"/>
</g>
<defs>
<clipPath id="clip0_1_4">
<rect width="725" height="631.484" fill="white"/>
</clipPath>
</defs>
</svg>
