<svg width="1289" height="346" viewBox="0 0 1289 346" fill="none" xmlns="http://www.w3.org/2000/svg">
<path d="M97.9 7.59998H248.4C297.6 7.59998 337.5 47.5 337.5 96.7V247.2C337.5 296.4 297.6 336.3 248.4 336.3H97.9C48.7 336.3 8.80005 296.4 8.80005 247.2V96.7C8.80005 47.5 48.7 7.59998 97.9 7.59998Z" fill="#F4F4F4" stroke="#F4F4F4" stroke-width="2" stroke-miterlimit="10"/>
<path d="M544.971 252.643C530.892 258.828 513.273 261.921 492.114 261.921C430.509 261.921 399.707 231.607 399.707 170.978C399.707 113.605 431.038 84.9188 493.701 84.9188C512.826 84.9188 529.915 87.7671 544.971 93.4637V122.761C529.915 116.25 513.639 112.995 496.143 112.995C454.232 112.995 433.276 132.323 433.276 170.978C433.276 212.889 453.052 233.845 492.603 233.845C498.462 233.845 505.135 232.868 512.622 230.915V180.134H544.971V252.643ZM566.333 220.783C566.333 195.311 584.888 182.575 621.997 182.575C630.705 182.575 639.412 183.389 648.12 185.016V175.373C648.12 163.898 639.86 158.161 623.34 158.161C609.342 158.161 593.799 160.195 576.709 164.264V138.63C593.799 134.561 609.342 132.526 623.34 132.526C661.426 132.526 680.469 146.605 680.469 174.763V260.7H661.67L650.195 249.225C639.046 256.875 626.758 260.7 613.33 260.7C581.999 260.7 566.333 247.394 566.333 220.783ZM648.12 206.989C639.982 205.361 631.274 204.548 621.997 204.548C606.453 204.548 598.682 209.837 598.682 220.417C598.682 231.81 605.192 237.507 618.213 237.507C628.955 237.507 638.924 234.17 648.12 227.497V206.989ZM743.457 231.037C750.863 233.397 759.448 234.577 769.214 234.577C788.745 234.577 798.511 220.783 798.511 193.195C798.511 170.653 790.088 159.382 773.242 159.382C762.337 159.382 752.409 161.579 743.457 165.973V231.037ZM711.108 86.1395H743.457V142.292C753.141 135.781 763.924 132.526 775.806 132.526C812.264 132.526 830.493 153.034 830.493 194.05C830.493 238.483 809.619 260.7 767.871 260.7C750.293 260.7 731.372 258.95 711.108 255.451V86.1395ZM854.907 260.7V132.526H879.932L883.96 148.884C895.19 137.979 907.072 132.526 919.604 132.526V158.649C907.56 158.649 896.777 163.654 887.256 173.664V260.7H854.907ZM970.264 86.1395V111.774H937.915V86.1395H970.264ZM970.264 132.526V260.7H937.915V132.526H970.264ZM1054.98 132.526C1093.88 132.526 1113.33 152.383 1113.33 192.097C1113.33 197.386 1112.96 202.676 1112.23 207.966H1027.15C1027.15 226.032 1040.41 235.065 1066.94 235.065C1079.88 235.065 1092.82 233.845 1105.76 231.403V257.038C1094.45 259.479 1080.7 260.7 1064.5 260.7C1018.03 260.7 994.8 238.849 994.8 195.148C994.8 153.4 1014.86 132.526 1054.98 132.526ZM1027.15 185.505H1081.84V184.528C1081.84 166.787 1072.88 157.917 1054.98 157.917C1037.89 157.917 1028.61 167.113 1027.15 185.505ZM1169.97 86.1395V260.7H1137.62V86.1395H1169.97Z" fill="#303031"/>
<path d="M245.621 252.643C231.542 258.828 213.923 261.921 192.764 261.921C131.159 261.921 100.357 231.607 100.357 170.978C100.357 113.605 131.688 84.9188 194.351 84.9188C213.475 84.9188 230.565 87.7671 245.621 93.4637V122.761C230.565 116.25 214.289 112.995 196.792 112.995C154.882 112.995 133.926 132.323 133.926 170.978C133.926 212.889 153.702 233.845 193.252 233.845C199.112 233.845 205.785 232.868 213.272 230.915V180.134H245.621V252.643Z" fill="#34D399"/>
</svg>
